<?xml version="1.0" encoding="utf-8"?>
<!-- Generator: Adobe Illustrator 19.1.0, SVG Export Plug-In . SVG Version: 6.00 Build 0)  -->
<svg version="1.1" id="Layer_1" xmlns="http://www.w3.org/2000/svg" xmlns:xlink="http://www.w3.org/1999/xlink" x="0px" y="0px"
	 viewBox="0 0 50 50" style="enable-background:new 0 0 50 50;" xml:space="preserve">

<g id="angry-face">
	<g>
		<path d="M42.4,42.2l-33.1-1l0.1-3c0,0,12.5-1.4,16.9-1.8s16.1-1.7,16.1-1.7V42.2z"/>
		<polygon points="40.8,5.7 25.4,12.1 39.4,3.1 		"/>
		<polygon points="7.1,8.8 23,13.6 6.5,11.6 		"/>
		<path d="M35.2,14c-2.9,0-5.2,2.3-5.2,5.2s2.3,5.2,5.2,5.2s5.2-2.3,5.2-5.2S38.1,14,35.2,14z M32.8,18.3c-0.8,0-1.5-0.7-1.5-1.5
			s0.7-1.5,1.5-1.5s1.5,0.7,1.5,1.5C34.3,17.6,33.6,18.3,32.8,18.3z"/>
		<path d="M14.8,15.7c-1.9,0-3.4,1.5-3.4,3.4s1.5,3.4,3.4,3.4s3.4-1.5,3.4-3.4S16.7,15.7,14.8,15.7z M13.1,18.3
			c-0.5,0-0.8-0.4-0.8-0.8c0-0.5,0.4-0.8,0.8-0.8c0.5,0,0.8,0.4,0.8,0.8C13.9,17.9,13.6,18.3,13.1,18.3z"/>
	</g>
</g>
<g id="happy-face">
	<path d="M35.1,33l-17.6-0.5l0.1-1.6c0,0,6.7-0.7,9-1s8.6-0.9,8.6-0.9L35.1,33L35.1,33z"/>
	<path d="M25,48.2c11.9,0,21.6-6.5,21.6-14.6H3.4C3.4,41.7,13.1,48.2,25,48.2z"/>
	<polygon points="42.7,12.9 26.2,14.9 42.1,10 		"/>
	<polygon points="7.9,10 23.8,14.9 7.3,12.9 		"/>
	<path d="M35.2,15.7c-1.9,0-3.4,1.5-3.4,3.4s1.5,3.4,3.4,3.4s3.4-1.5,3.4-3.4S37.1,15.7,35.2,15.7z M33.6,18.6c-0.5,0-1-0.4-1-1
		c0-0.5,0.4-1,1-1s1,0.4,1,1C34.6,18.1,34.1,18.6,33.6,18.6z"/>
	<path d="M14.8,15.7c-1.9,0-3.4,1.5-3.4,3.4s1.5,3.4,3.4,3.4s3.4-1.5,3.4-3.4S16.7,15.7,14.8,15.7z M13.1,18.3
		c-0.5,0-0.8-0.4-0.8-0.8c0-0.5,0.4-0.8,0.8-0.8c0.5,0,0.8,0.4,0.8,0.8C13.9,17.9,13.6,18.3,13.1,18.3z"/>

</g>
<g id="lover-face">
	<path d="M25,45c7.6,0,13.7-2.6,13.7-5.8c-9.1,1.2-18.2,1.2-27.4,0C11.3,42.4,17.4,45,25,45z"/>
	<path d="M38.5,13.5c0,0-2.9-6-6.7-2.7c-3.1,2.8,2,10.7,3.9,13.5c0.4,0.6,1.2,0.7,1.7,0.3
		c2.8-1.9,10.3-7.7,8.3-11.3C43.3,8.8,38.5,13.5,38.5,13.5z"/>
	<path d="M11.5,13.5c0,0-4.8-4.7-7.2-0.2c-2,3.7,5.5,9.4,8.3,11.3c0.6,0.4,1.3,0.3,1.7-0.3
			c2-2.8,7.1-10.7,3.9-13.5C14.4,7.4,11.5,13.5,11.5,13.5z"/>
</g>
</svg>
